<svg xmlns="http://www.w3.org/2000/svg" width="150" height="50" viewBox="0 0 150 50">
  <g id="Group_70" data-name="Group 70" transform="translate(-128 -2196)">
    <path id="Path_4" data-name="Path 4" d="M150.89,45.878c0,2.769-1.931,5.012-4.319,5.012H5.215C2.828,50.89.89,48.647.89,45.878V5.909C.89,3.141,2.828.89,5.215.89H146.569c2.39,0,4.319,2.251,4.319,5.019V45.878Z" transform="translate(127.11 2195.11)"/>
    <g id="Group_64" data-name="Group 64" transform="translate(140 2204)">
      <g id="Group_63" data-name="Group 63">
        <path id="Path_5" data-name="Path 5" d="M32.728,20.9A6.666,6.666,0,0,1,35.9,15.3,6.828,6.828,0,0,0,30.526,12.4c-2.262-.238-4.456,1.354-5.609,1.354-1.175,0-2.95-1.331-4.862-1.291a7.159,7.159,0,0,0-6.026,3.675c-2.606,4.511-.662,11.141,1.834,14.788,1.249,1.786,2.708,3.78,4.618,3.71,1.869-.077,2.567-1.191,4.822-1.191,2.234,0,2.89,1.191,4.838,1.147,2.006-.032,3.268-1.794,4.474-3.6a14.757,14.757,0,0,0,2.046-4.166A6.444,6.444,0,0,1,32.728,20.9Z" transform="translate(-12.792 -5.294)" fill="#fff"/>
        <path id="Path_6" data-name="Path 6" d="M27.5,10.919a6.562,6.562,0,0,0,1.5-4.7,6.684,6.684,0,0,0-4.322,2.236,6.244,6.244,0,0,0-1.541,4.529A5.521,5.521,0,0,0,27.5,10.919Z" transform="translate(-11.245 -6.217)" fill="#fff"/>
      </g>
    </g>
    <g id="Group_65" data-name="Group 65" transform="translate(174.061 2217.612)">
      <path id="Path_7" data-name="Path 7" d="M55.33,33.5H52.719L51.288,29H46.315l-1.363,4.5H42.41l4.927-15.3H50.38Zm-4.474-6.381-1.294-4q-.205-.612-.772-2.883h-.046q-.226.976-.727,2.883l-1.271,4Z" transform="translate(-42.41 -17.972)" fill="#fff"/>
      <path id="Path_8" data-name="Path 8" d="M66.048,27.32a6.271,6.271,0,0,1-1.521,4.449,4.449,4.449,0,0,1-3.383,1.454,3.383,3.383,0,0,1-3.134-1.566h-.046v5.813H55.512V25.57q0-1.77-.091-3.633h2.156l.137,1.749h.046a4.362,4.362,0,0,1,6.982-.432A6.08,6.08,0,0,1,66.048,27.32Zm-2.5.09a4.543,4.543,0,0,0-.727-2.657,2.51,2.51,0,0,0-2.134-1.09,2.55,2.55,0,0,0-1.646.6,2.79,2.79,0,0,0-.965,1.579,3.21,3.21,0,0,0-.114.747v1.84a2.948,2.948,0,0,0,.738,2.033,2.447,2.447,0,0,0,1.918.829,2.51,2.51,0,0,0,2.156-1.067A4.7,4.7,0,0,0,63.55,27.409Z" transform="translate(-40.458 -17.444)" fill="#fff"/>
      <path id="Path_9" data-name="Path 9" d="M77.085,27.32a6.266,6.266,0,0,1-1.523,4.449,4.444,4.444,0,0,1-3.382,1.454,3.38,3.38,0,0,1-3.133-1.566H69v5.813H66.55V25.57q0-1.77-.091-3.633h2.156l.137,1.749H68.8a4.364,4.364,0,0,1,6.983-.432A6.1,6.1,0,0,1,77.085,27.32Zm-2.5.09a4.543,4.543,0,0,0-.728-2.657,2.507,2.507,0,0,0-2.133-1.09,2.553,2.553,0,0,0-1.647.6,2.788,2.788,0,0,0-.964,1.579A3.272,3.272,0,0,0,69,26.59v1.84a2.957,2.957,0,0,0,.736,2.033,2.452,2.452,0,0,0,1.92.829,2.51,2.51,0,0,0,2.156-1.067A4.7,4.7,0,0,0,74.587,27.409Z" transform="translate(-38.803 -17.444)" fill="#fff"/>
      <path id="Path_10" data-name="Path 10" d="M89.277,29.238a4.079,4.079,0,0,1-1.359,3.179,6.024,6.024,0,0,1-4.169,1.34,7.3,7.3,0,0,1-3.966-.953l.568-2.044a6.721,6.721,0,0,0,3.544.977,3.351,3.351,0,0,0,2.159-.626,2.043,2.043,0,0,0,.77-1.672,2.132,2.132,0,0,0-.636-1.569,5.912,5.912,0,0,0-2.111-1.183q-4.019-1.5-4.018-4.388a3.883,3.883,0,0,1,1.409-3.092A5.554,5.554,0,0,1,85.214,18a7.428,7.428,0,0,1,3.473.727l-.613,2a6.026,6.026,0,0,0-2.929-.7,2.965,2.965,0,0,0-2.019.636,1.817,1.817,0,0,0-.613,1.386,1.871,1.871,0,0,0,.7,1.5,7.942,7.942,0,0,0,2.226,1.181,7.554,7.554,0,0,1,2.906,1.861A3.887,3.887,0,0,1,89.277,29.238Z" transform="translate(-36.804 -18.001)" fill="#fff"/>
      <path id="Path_11" data-name="Path 11" d="M95.965,24.107h-2.7v5.358q0,2.044,1.431,2.044a4.361,4.361,0,0,0,1.089-.114l.068,1.862a5.555,5.555,0,0,1-1.907.271,2.942,2.942,0,0,1-2.271-.885,4.35,4.35,0,0,1-.818-2.975V24.1h-1.61v-1.84h1.61V20.244l2.408-.727v2.747h2.7v1.842Z" transform="translate(-35.385 -17.774)" fill="#fff"/>
      <path id="Path_12" data-name="Path 12" d="M107.1,27.364a6.054,6.054,0,0,1-1.454,4.178,5.19,5.19,0,0,1-4.043,1.68,4.935,4.935,0,0,1-3.87-1.611,5.868,5.868,0,0,1-1.442-4.064,5.994,5.994,0,0,1,1.487-4.2,5.146,5.146,0,0,1,4.007-1.635,5.04,5.04,0,0,1,3.905,1.612A5.8,5.8,0,0,1,107.1,27.364Zm-2.544.079a4.964,4.964,0,0,0-.658-2.619,2.422,2.422,0,0,0-2.2-1.32,2.459,2.459,0,0,0-2.248,1.32,5.059,5.059,0,0,0-.658,2.665,4.957,4.957,0,0,0,.658,2.617,2.506,2.506,0,0,0,4.427-.023A4.982,4.982,0,0,0,104.557,27.444Z" transform="translate(-34.328 -17.444)" fill="#fff"/>
      <path id="Path_13" data-name="Path 13" d="M113.391,24.094a4.257,4.257,0,0,0-.773-.068,2.317,2.317,0,0,0-2,.977,3.674,3.674,0,0,0-.613,2.179v5.79h-2.451l.023-7.56q0-1.908-.092-3.474h2.136l.09,2.111h.068a3.774,3.774,0,0,1,1.226-1.748,2.964,2.964,0,0,1,1.772-.591,3.936,3.936,0,0,1,.613.045v2.338Z" transform="translate(-32.648 -17.444)" fill="#fff"/>
      <path id="Path_14" data-name="Path 14" d="M123.435,26.936a5.751,5.751,0,0,1-.09,1.112H115.99a3.2,3.2,0,0,0,1.067,2.5,3.643,3.643,0,0,0,2.406.772,8.135,8.135,0,0,0,2.976-.522l.384,1.7a9.2,9.2,0,0,1-3.7.682,5.359,5.359,0,0,1-4.032-1.51,5.577,5.577,0,0,1-1.464-4.053,6.322,6.322,0,0,1,1.364-4.155,4.7,4.7,0,0,1,3.858-1.77,4.112,4.112,0,0,1,3.612,1.77A5.968,5.968,0,0,1,123.435,26.936ZM121.1,26.3a3.331,3.331,0,0,0-.476-1.885,2.142,2.142,0,0,0-1.954-1.022,2.326,2.326,0,0,0-1.952,1,3.659,3.659,0,0,0-.726,1.907H121.1Z" transform="translate(-31.727 -17.447)" fill="#fff"/>
    </g>
    <g id="Group_67" data-name="Group 67" transform="translate(175.517 2204.39)">
      <g id="Group_66" data-name="Group 66">
        <path id="Path_15" data-name="Path 15" d="M49.856,10.483a3.775,3.775,0,0,1-1.217,3.057,4.839,4.839,0,0,1-3.2.948,14.839,14.839,0,0,1-1.763-.09V7a13.009,13.009,0,0,1,2.076-.156,4.475,4.475,0,0,1,2.979.859A3.472,3.472,0,0,1,49.856,10.483Zm-1.271.033a2.749,2.749,0,0,0-.7-2.019,2.747,2.747,0,0,0-2.037-.7,5.1,5.1,0,0,0-.971.078V13.5a6.363,6.363,0,0,0,.814.033,2.851,2.851,0,0,0,2.136-.769A3.081,3.081,0,0,0,48.585,10.517Z" transform="translate(-43.676 -6.512)" fill="#fff"/>
        <path id="Path_16" data-name="Path 16" d="M55.6,11.4a2.973,2.973,0,0,1-.714,2.053,2.549,2.549,0,0,1-1.986.826,2.423,2.423,0,0,1-1.9-.792,2.886,2.886,0,0,1-.707-2,2.945,2.945,0,0,1,.73-2.063,2.533,2.533,0,0,1,1.969-.8,2.479,2.479,0,0,1,1.919.791A2.862,2.862,0,0,1,55.6,11.4Zm-1.25.039a2.452,2.452,0,0,0-.323-1.287A1.19,1.19,0,0,0,52.947,9.5a1.209,1.209,0,0,0-1.105.649,2.485,2.485,0,0,0-.323,1.309,2.452,2.452,0,0,0,.323,1.287,1.216,1.216,0,0,0,1.094.649,1.2,1.2,0,0,0,1.081-.66A2.436,2.436,0,0,0,54.351,11.438Z" transform="translate(-42.684 -6.246)" fill="#fff"/>
        <path id="Path_17" data-name="Path 17" d="M63.79,8.719l-1.7,5.421h-1.1l-.7-2.354a17.622,17.622,0,0,1-.436-1.751h-.022a12.823,12.823,0,0,1-.436,1.751l-.746,2.354H57.53l-1.6-5.421h1.239l.613,2.577q.223.914.368,1.74h.022q.135-.68.447-1.728l.769-2.588h.982l.737,2.532q.267.926.435,1.785h.033a17.053,17.053,0,0,1,.368-1.785l.658-2.532H63.79Z" transform="translate(-41.837 -6.232)" fill="#fff"/>
        <path id="Path_18" data-name="Path 18" d="M68.818,14.155H67.613v-3.1q0-1.435-1.092-1.435a1.088,1.088,0,0,0-.871.394,1.4,1.4,0,0,0-.335.929v3.215H64.11V10.283q0-.714-.044-1.551h1.059l.056.848h.033a1.741,1.741,0,0,1,.624-.654,2.037,2.037,0,0,1,1.092-.3,1.73,1.73,0,0,1,1.262.491,2.386,2.386,0,0,1,.624,1.8Z" transform="translate(-40.617 -6.246)" fill="#fff"/>
        <path id="Path_19" data-name="Path 19" d="M71.245,14.465h-1.2V6.556h1.2Z" transform="translate(-39.721 -6.556)" fill="#fff"/>
        <path id="Path_20" data-name="Path 20" d="M77.951,11.4a2.974,2.974,0,0,1-.714,2.053,2.551,2.551,0,0,1-1.986.826,2.419,2.419,0,0,1-1.9-.792,2.886,2.886,0,0,1-.707-2,2.945,2.945,0,0,1,.73-2.063,2.532,2.532,0,0,1,1.968-.8,2.482,2.482,0,0,1,1.921.791A2.862,2.862,0,0,1,77.951,11.4Zm-1.251.039a2.452,2.452,0,0,0-.323-1.287A1.188,1.188,0,0,0,75.3,9.5a1.207,1.207,0,0,0-1.105.649,2.485,2.485,0,0,0-.323,1.309,2.452,2.452,0,0,0,.323,1.287,1.216,1.216,0,0,0,1.094.649,1.2,1.2,0,0,0,1.08-.66A2.426,2.426,0,0,0,76.7,11.438Z" transform="translate(-39.331 -6.246)" fill="#fff"/>
        <path id="Path_21" data-name="Path 21" d="M82.91,14.154H81.828l-.09-.624h-.033a1.856,1.856,0,0,1-1.584.748,1.634,1.634,0,0,1-1.237-.491,1.54,1.54,0,0,1-.424-1.1,1.684,1.684,0,0,1,.831-1.517,4.315,4.315,0,0,1,2.338-.513v-.1q0-1.071-1.126-1.071a2.521,2.521,0,0,0-1.413.4l-.245-.791a3.477,3.477,0,0,1,1.86-.468q2.125,0,2.128,2.243v2A8.468,8.468,0,0,0,82.91,14.154Zm-1.251-1.863v-.836q-1.994-.034-1.994,1.092a.817.817,0,0,0,.231.636.843.843,0,0,0,.589.212,1.217,1.217,0,0,0,.737-.251,1.029,1.029,0,0,0,.437-.853Z" transform="translate(-38.458 -6.246)" fill="#fff"/>
        <path id="Path_22" data-name="Path 22" d="M88.96,14.465h-1.07l-.056-.871H87.8a1.8,1.8,0,0,1-1.741.994,2.04,2.04,0,0,1-1.628-.769,3,3,0,0,1-.646-2,3.143,3.143,0,0,1,.7-2.131,2.16,2.16,0,0,1,1.673-.759,1.625,1.625,0,0,1,1.527.736h.023V6.556h1.206V13Q88.917,13.8,88.96,14.465Zm-1.249-2.286v-.9a1.774,1.774,0,0,0-.033-.38,1.373,1.373,0,0,0-.436-.73,1.185,1.185,0,0,0-.806-.3,1.237,1.237,0,0,0-1.06.536,2.3,2.3,0,0,0-.386,1.372,2.141,2.141,0,0,0,.37,1.305,1.24,1.24,0,0,0,1.053.535,1.161,1.161,0,0,0,.952-.446A1.486,1.486,0,0,0,87.711,12.178Z" transform="translate(-37.66 -6.556)" fill="#fff"/>
        <path id="Path_23" data-name="Path 23" d="M97.941,11.4a2.973,2.973,0,0,1-.714,2.053,2.547,2.547,0,0,1-1.986.826,2.426,2.426,0,0,1-1.9-.792,2.886,2.886,0,0,1-.707-2,2.945,2.945,0,0,1,.73-2.063,2.534,2.534,0,0,1,1.97-.8,2.477,2.477,0,0,1,1.918.791A2.862,2.862,0,0,1,97.941,11.4Zm-1.249.039a2.452,2.452,0,0,0-.323-1.287A1.192,1.192,0,0,0,95.286,9.5a1.211,1.211,0,0,0-1.105.649,2.485,2.485,0,0,0-.323,1.309,2.452,2.452,0,0,0,.323,1.287,1.232,1.232,0,0,0,2.176-.011A2.447,2.447,0,0,0,96.692,11.438Z" transform="translate(-36.333 -6.246)" fill="#fff"/>
        <path id="Path_24" data-name="Path 24" d="M103.5,14.155h-1.2v-3.1q0-1.435-1.094-1.435a1.084,1.084,0,0,0-.869.394,1.394,1.394,0,0,0-.335.929v3.215H98.795V10.283q0-.714-.043-1.551H99.81l.056.848H99.9a1.759,1.759,0,0,1,.624-.654,2.041,2.041,0,0,1,1.094-.3,1.729,1.729,0,0,1,1.26.491,2.381,2.381,0,0,1,.624,1.8Z" transform="translate(-35.415 -6.246)" fill="#fff"/>
        <path id="Path_25" data-name="Path 25" d="M110.367,9.8H109.04v2.634c0,.669.236,1,.7,1a2.123,2.123,0,0,0,.537-.056l.031.914a2.708,2.708,0,0,1-.936.135,1.441,1.441,0,0,1-1.114-.435,2.126,2.126,0,0,1-.4-1.462V9.8h-.792V8.9h.792V7.9l1.181-.357V8.894h1.327v.9Z" transform="translate(-34.168 -6.408)" fill="#fff"/>
        <path id="Path_26" data-name="Path 26" d="M116.1,14.465h-1.206V11.383q0-1.458-1.091-1.458a1.15,1.15,0,0,0-1.15.845,1.515,1.515,0,0,0-.056.434v3.26h-1.2V6.556h1.2V9.823h.023a1.822,1.822,0,0,1,1.628-.891,1.68,1.68,0,0,1,1.24.491,2.469,2.469,0,0,1,.613,1.818v3.223Z" transform="translate(-33.519 -6.556)" fill="#fff"/>
        <path id="Path_27" data-name="Path 27" d="M121.836,11.189a2.909,2.909,0,0,1-.045.546h-3.614a1.581,1.581,0,0,0,.523,1.227,1.8,1.8,0,0,0,1.183.379,3.993,3.993,0,0,0,1.462-.256l.189.837a4.539,4.539,0,0,1-1.819.335,2.628,2.628,0,0,1-1.979-.742,2.733,2.733,0,0,1-.719-1.991,3.1,3.1,0,0,1,.669-2.041,2.3,2.3,0,0,1,1.9-.869,2.016,2.016,0,0,1,1.772.869A2.894,2.894,0,0,1,121.836,11.189Zm-1.15-.312a1.623,1.623,0,0,0-.233-.926,1.053,1.053,0,0,0-.959-.5,1.144,1.144,0,0,0-.959.491,1.824,1.824,0,0,0-.358.937h2.509Z" transform="translate(-32.675 -6.247)" fill="#fff"/>
      </g>
    </g>
  </g>
</svg>
