<svg id="Layer_1" data-name="Layer 1" xmlns="http://www.w3.org/2000/svg" width="150" height="50" viewBox="0 0 150 50">
  <g id="Group_315" data-name="Group 315">
    <g id="Group_70" data-name="Group 70">
      <path id="Path_4" data-name="Path 4" d="M150,44.99c0,2.77-1.93,5.01-4.32,5.01H4.33C1.94,50,0,47.76,0,44.99V5.02C0,2.25,1.94,0,4.33,0H145.68C148.07,0,150,2.25,150,5.02V44.99Z" fill="#010101"/>
      <g id="Group_64" data-name="Group 64">
        <g id="Group_63" data-name="Group 63">
          <path id="Path_5" data-name="Path 5" d="M31.94,23.61a6.666,6.666,0,0,1,3.17-5.6,6.843,6.843,0,0,0-5.37-2.9c-2.26-.24-4.46,1.35-5.61,1.35s-2.95-1.33-4.86-1.29a7.193,7.193,0,0,0-6.03,3.67c-2.61,4.51-.66,11.14,1.83,14.79,1.25,1.79,2.71,3.78,4.62,3.71,1.87-.08,2.57-1.19,4.82-1.19s2.89,1.19,4.84,1.15c2.01-.03,3.27-1.79,4.47-3.6a14.723,14.723,0,0,0,2.05-4.17,6.441,6.441,0,0,1-3.93-5.93Z" fill="#fff"/>
          <path id="Path_6" data-name="Path 6" d="M28.25,12.7A6.575,6.575,0,0,0,29.75,8a6.671,6.671,0,0,0-4.32,2.24,6.255,6.255,0,0,0-1.54,4.53,5.512,5.512,0,0,0,4.36-2.06Z" fill="#fff"/>
        </g>
      </g>
      <g id="Group_65" data-name="Group 65">
        <path id="Path_7" data-name="Path 7" d="M58.98,37.14H56.37l-1.43-4.5H49.97l-1.36,4.5H46.07L51,21.84h3.04l4.95,15.3Zm-4.47-6.38-1.29-4c-.14-.41-.39-1.37-.77-2.88H52.4c-.15.65-.39,1.61-.73,2.88l-1.27,4Z" fill="#fff"/>
        <path id="Path_8" data-name="Path 8" d="M71.65,31.49a6.3,6.3,0,0,1-1.52,4.45,4.429,4.429,0,0,1-3.38,1.45,3.375,3.375,0,0,1-3.13-1.57h-.05v5.81H61.12V29.73q0-1.77-.09-3.63h2.16l.14,1.75h.05a4.36,4.36,0,0,1,6.98-.44,6.1,6.1,0,0,1,1.31,4.07Zm-2.5.09a4.556,4.556,0,0,0-.73-2.66,2.509,2.509,0,0,0-2.13-1.09,2.557,2.557,0,0,0-1.65.6,2.849,2.849,0,0,0-.97,1.58,2.668,2.668,0,0,0-.11.75V32.6a2.915,2.915,0,0,0,.74,2.03,2.46,2.46,0,0,0,1.92.83,2.532,2.532,0,0,0,2.16-1.07,4.763,4.763,0,0,0,.78-2.82h0Z" fill="#fff"/>
        <path id="Path_9" data-name="Path 9" d="M84.34,31.49a6.3,6.3,0,0,1-1.52,4.45,4.429,4.429,0,0,1-3.38,1.45,3.375,3.375,0,0,1-3.13-1.57h-.05v5.81H73.81V29.73q0-1.77-.09-3.63h2.16l.14,1.75h.05a4.365,4.365,0,0,1,6.98-.43,6.1,6.1,0,0,1,1.3,4.07Zm-2.5.09a4.556,4.556,0,0,0-.73-2.66,2.509,2.509,0,0,0-2.13-1.09,2.557,2.557,0,0,0-1.65.6,2.78,2.78,0,0,0-.96,1.58,3.161,3.161,0,0,0-.11.75V32.6A2.915,2.915,0,0,0,77,34.63a2.46,2.46,0,0,0,1.92.83,2.532,2.532,0,0,0,2.16-1.07,4.763,4.763,0,0,0,.78-2.82h0Z" fill="#fff"/>
        <path id="Path_10" data-name="Path 10" d="M98.53,32.85a4.1,4.1,0,0,1-1.36,3.18A6.05,6.05,0,0,1,93,37.37a7.258,7.258,0,0,1-3.97-.95l.57-2.04a6.7,6.7,0,0,0,3.54.98,3.29,3.29,0,0,0,2.16-.63,2.034,2.034,0,0,0,.77-1.67,2.143,2.143,0,0,0-.64-1.57,5.715,5.715,0,0,0-2.11-1.18q-4.02-1.5-4.02-4.39a3.883,3.883,0,0,1,1.41-3.09,5.53,5.53,0,0,1,3.75-1.21,7.426,7.426,0,0,1,3.47.73l-.61,2a5.979,5.979,0,0,0-2.93-.7,2.949,2.949,0,0,0-2.02.64,1.8,1.8,0,0,0-.61,1.39,1.887,1.887,0,0,0,.7,1.5,7.825,7.825,0,0,0,2.23,1.18,7.6,7.6,0,0,1,2.91,1.86,3.893,3.893,0,0,1,.93,2.65Z" fill="#fff"/>
        <path id="Path_11" data-name="Path 11" d="M106.64,27.94h-2.7V33.3c0,1.36.48,2.04,1.43,2.04a4.979,4.979,0,0,0,1.09-.11l.07,1.86a5.628,5.628,0,0,1-1.91.27,2.954,2.954,0,0,1-2.27-.88,4.349,4.349,0,0,1-.82-2.98V27.93H99.92V26.09h1.61V24.07l2.41-.73v2.75h2.7v1.84h0Z" fill="#fff"/>
        <path id="Path_12" data-name="Path 12" d="M118.83,31.53a6.07,6.07,0,0,1-1.45,4.18,5.186,5.186,0,0,1-4.04,1.68,4.967,4.967,0,0,1-3.87-1.61,5.874,5.874,0,0,1-1.44-4.06,6,6,0,0,1,1.49-4.2,5.15,5.15,0,0,1,4.01-1.64,5.044,5.044,0,0,1,3.9,1.61,5.8,5.8,0,0,1,1.41,4.04Zm-2.54.08a4.918,4.918,0,0,0-.66-2.62,2.417,2.417,0,0,0-2.2-1.32,2.467,2.467,0,0,0-2.25,1.32,5.07,5.07,0,0,0-.66,2.67,4.918,4.918,0,0,0,.66,2.62,2.5,2.5,0,0,0,4.42-.02,4.982,4.982,0,0,0,.68-2.64h0Z" fill="#fff"/>
        <path id="Path_13" data-name="Path 13" d="M126.8,28.26a4.011,4.011,0,0,0-.77-.07,2.305,2.305,0,0,0-2,.98,3.663,3.663,0,0,0-.61,2.18v5.79h-2.45l.02-7.56c0-1.27-.03-2.43-.09-3.47h2.14l.09,2.11h.07a3.743,3.743,0,0,1,1.23-1.75,2.965,2.965,0,0,1,1.77-.59,3.077,3.077,0,0,1,.61.05v2.34h0Z" fill="#fff"/>
        <path id="Path_14" data-name="Path 14" d="M137.77,31.1a5.871,5.871,0,0,1-.09,1.11h-7.36a3.209,3.209,0,0,0,1.07,2.5,3.61,3.61,0,0,0,2.41.77,8.172,8.172,0,0,0,2.98-.52l.38,1.7a9.175,9.175,0,0,1-3.7.68,5.371,5.371,0,0,1-4.03-1.51,5.554,5.554,0,0,1-1.46-4.05,6.387,6.387,0,0,1,1.36-4.16,4.688,4.688,0,0,1,3.86-1.77,4.1,4.1,0,0,1,3.61,1.77,5.859,5.859,0,0,1,.97,3.47Zm-2.33-.64a3.319,3.319,0,0,0-.48-1.89,2.116,2.116,0,0,0-1.95-1.02,2.32,2.32,0,0,0-1.95,1,3.681,3.681,0,0,0-.73,1.91h5.11Z" fill="#fff"/>
      </g>
    </g>
    <g id="Group_314" data-name="Group 314">
      <path id="Path_144" data-name="Path 144" d="M48.02,7.01v3.38h3.91V7.01h1.05V15.1H51.93V11.31H48.02V15.1H46.98V7.01Z" fill="#fff" stroke="#fff" stroke-miterlimit="10" stroke-width="0.25"/>
      <path id="Path_145" data-name="Path 145" d="M55.35,12.39a1.862,1.862,0,0,0,1.99,2.02,3.8,3.8,0,0,0,1.61-.3l.18.75a4.667,4.667,0,0,1-1.93.36,2.694,2.694,0,0,1-2.85-2.93c0-1.75,1.03-3.13,2.72-3.13a2.463,2.463,0,0,1,2.4,2.73,2.719,2.719,0,0,1-.04.49H55.35Zm3.09-.75a1.5,1.5,0,0,0-1.46-1.71,1.741,1.741,0,0,0-1.62,1.71h3.08Z" fill="#fff" stroke="#fff" stroke-miterlimit="10" stroke-width="0.25"/>
      <path id="Path_146" data-name="Path 146" d="M60.77,10.86c0-.6-.01-1.09-.05-1.57h.94l.06.96h.02a2.141,2.141,0,0,1,1.92-1.09c.8,0,2.05.48,2.05,2.47V15.1H64.66V11.75c0-.94-.35-1.72-1.34-1.72a1.5,1.5,0,0,0-1.42,1.08,1.448,1.448,0,0,0-.07.49v3.49H60.78V10.86Z" fill="#fff" stroke="#fff" stroke-miterlimit="10" stroke-width="0.25"/>
      <path id="Path_147" data-name="Path 147" d="M68.66,7.63V9.3h1.51v.8H68.66v3.13c0,.72.2,1.13.79,1.13a2.6,2.6,0,0,0,.61-.07l.05.79a2.692,2.692,0,0,1-.94.14,1.489,1.489,0,0,1-1.14-.44,2.149,2.149,0,0,1-.41-1.51V10.1h-.9V9.3h.9V7.91l1.03-.28Z" fill="#fff" stroke="#fff" stroke-miterlimit="10" stroke-width="0.25"/>
      <path id="Path_148" data-name="Path 148" d="M75.08,7.66a.625.625,0,0,1-.67.65.634.634,0,0,1-.64-.65A.653.653,0,0,1,74.43,7a.639.639,0,0,1,.65.66ZM73.91,15.1V9.3h1.05v5.8Z" fill="#fff" stroke="#fff" stroke-miterlimit="10" stroke-width="0.25"/>
    </g>
  </g>
</svg>
