<?xml version="1.0" encoding="UTF-8"?>
<svg id="Layer_2" data-name="Layer 2" xmlns="http://www.w3.org/2000/svg" xmlns:xlink="http://www.w3.org/1999/xlink" viewBox="0 0 568.95 116.04">
  <defs>
    <style>
      .cls-1 {
        fill: #0071bc;
      }

      .cls-2 {
        fill: url(#linear-gradient);
      }

      .cls-3 {
        fill: #29abe2;
      }

      .cls-4 {
        fill: #f2f2f2;
      }
    </style>
    <linearGradient id="linear-gradient" x1="81" y1="-18.21" x2="-42.13" y2="217.71" gradientUnits="userSpaceOnUse">
      <stop offset="0" stop-color="#29abe2"/>
      <stop offset=".03" stop-color="#37afe2" stop-opacity=".93"/>
      <stop offset=".11" stop-color="#60bce3" stop-opacity=".74"/>
      <stop offset=".19" stop-color="#84c7e3" stop-opacity=".56"/>
      <stop offset=".29" stop-color="#a2d0e4" stop-opacity=".42"/>
      <stop offset=".38" stop-color="#bbd8e5" stop-opacity=".3"/>
      <stop offset=".49" stop-color="#cedee5" stop-opacity=".21"/>
      <stop offset=".61" stop-color="#dbe2e5" stop-opacity=".15"/>
      <stop offset=".76" stop-color="#e3e5e5" stop-opacity=".11"/>
      <stop offset="1" stop-color="#e6e6e6" stop-opacity=".1"/>
    </linearGradient>
  </defs>
  <g id="Layer_1-2" data-name="Layer 1">
    <g>
      <g>
        <path class="cls-3" d="M189.96,80.7h-7.07l-9-21.4h-29.35l-8.88,21.4h-8.02l28.32-63.38h7.08l26.92,63.38Zm-18.3-27.08l-12.03-28.97-12.31,28.97h24.34Z"/>
        <path class="cls-3" d="M236.39,57.24v39.92h-6.26v-23.62c-4.66,5.27-10.41,8.04-17.25,8.31-6.79,.22-12.62-2.13-17.5-7.04-4.87-4.91-7.31-10.8-7.31-17.66s2.26-12.27,6.79-17.04,10.06-7.24,16.59-7.41c6.8-.22,12.7,2.14,17.7,7.08,4.99,4.94,7.41,10.76,7.24,17.45Zm-6.26,.5c.11-5.18-1.67-9.7-5.33-13.56-3.67-3.86-8.09-5.65-13.27-5.38-4.8,.17-8.89,2.11-12.28,5.83-3.39,3.72-5.03,8.06-4.92,13.02,.05,5.02,1.85,9.29,5.37,12.82,3.53,3.53,7.8,5.29,12.82,5.29s8.9-1.76,12.32-5.29c3.42-3.53,5.18-7.77,5.29-12.73Z"/>
        <path class="cls-3" d="M284.38,60.53c0,6.09-1.96,11.17-5.89,15.23-3.92,4.06-8.88,6.09-14.86,6.09s-10.94-2.03-14.86-6.09c-3.92-4.06-5.88-9.14-5.88-15.23v-26.75h6.26v27.55c0,3.96,1.45,7.35,4.35,10.19,2.9,2.83,6.28,4.25,10.14,4.25s7.24-1.41,10.14-4.25c2.9-2.83,4.35-6.23,4.35-10.19v-27.55h6.26v26.75Z"/>
        <path class="cls-3" d="M339.53,57.16v23.54h-6.26v-7.33c-5.08,5.82-11.32,8.62-18.69,8.4-6.45-.22-11.94-2.72-16.48-7.49-4.54-4.78-6.81-10.45-6.81-17.04s2.44-12.74,7.33-17.66c4.88-4.91,10.73-7.23,17.53-6.95,6.59,.22,12.18,2.73,16.79,7.53,4.61,4.8,6.8,10.47,6.59,17Zm-6.26-.45c-.11-4.95-1.87-9.18-5.28-12.7-3.41-3.52-7.51-5.28-12.29-5.28s-9.27,1.76-12.79,5.28c-3.52,3.52-5.31,7.78-5.36,12.79-.11,4.95,1.53,9.28,4.91,12.99s7.47,5.68,12.25,5.9c5.17,.22,9.58-1.58,13.24-5.4,3.66-3.82,5.43-8.35,5.32-13.57Z"/>
        <path class="cls-4" d="M394.35,56.82v21.65c0,5.93-2.43,10.84-7.29,14.73s-10.41,5.73-16.67,5.52c-5.6-.22-10.43-1.92-14.49-5.1-3.84-3.07-6.42-7-7.74-11.77h6.08c.93,3.24,3.01,6.02,6.24,8.35s6.76,3.5,10.6,3.5c4.6-.05,8.58-1.66,11.95-4.81,3.37-3.16,5.05-6.93,5.05-11.32v-4.44c-4.6,5.22-10.35,7.96-17.25,8.23-6.74,.22-12.54-2.12-17.42-7.03-4.87-4.9-7.31-10.78-7.31-17.63s2.26-12.24,6.79-17.01c4.53-4.77,10.06-7.26,16.59-7.48,6.75-.17,12.61,2.21,17.57,7.12,4.97,4.91,7.39,10.74,7.29,17.49Zm-6.26,.45c.17-5.17-1.58-9.68-5.24-13.53-3.66-3.85-8.07-5.66-13.24-5.45-4.84,.22-8.94,2.19-12.29,5.9s-5.01,8.04-4.95,12.99c.11,5.01,1.93,9.27,5.45,12.79,3.52,3.52,7.76,5.28,12.71,5.28s8.95-1.76,12.33-5.28c3.38-3.52,5.13-7.75,5.24-12.7Z"/>
        <path class="cls-4" d="M442.43,60.53c0,6.09-1.96,11.17-5.89,15.23-3.92,4.06-8.88,6.09-14.86,6.09s-10.94-2.03-14.86-6.09c-3.92-4.06-5.88-9.14-5.88-15.23v-26.75h6.26v27.55c0,3.96,1.45,7.35,4.35,10.19,2.9,2.83,6.28,4.25,10.14,4.25s7.24-1.41,10.14-4.25c2.9-2.83,4.35-6.23,4.35-10.19v-27.55h6.26v26.75Z"/>
        <path class="cls-4" d="M497.58,57.16v23.54h-6.26v-7.33c-5.08,5.82-11.32,8.62-18.69,8.4-6.45-.22-11.94-2.72-16.48-7.49-4.54-4.78-6.81-10.45-6.81-17.04s2.44-12.74,7.33-17.66c4.88-4.91,10.73-7.23,17.53-6.95,6.59,.22,12.18,2.73,16.79,7.53,4.61,4.8,6.8,10.47,6.59,17Zm-6.26-.45c-.11-4.95-1.87-9.18-5.28-12.7-3.41-3.52-7.51-5.28-12.29-5.28s-9.27,1.76-12.79,5.28c-3.52,3.52-5.31,7.78-5.36,12.79-.11,4.95,1.53,9.28,4.91,12.99s7.47,5.68,12.25,5.9c5.17,.22,9.58-1.58,13.24-5.4,3.66-3.82,5.43-8.35,5.32-13.57Z"/>
        <path class="cls-4" d="M522.6,39.13c-2.91,.11-5.27,.9-7.08,2.39s-3.05,2.77-3.7,3.87c-1.04,1.81-1.56,4.23-1.56,7.24v28.07h-6.59V33.78h5.84v6.67c1.32-2.52,3.26-4.47,5.84-5.84,2.36-1.26,4.77-1.84,7.24-1.73v6.26Z"/>
        <path class="cls-4" d="M568.95,57.48c.16,6.75-2.25,12.58-7.25,17.49-4.99,4.91-10.86,7.26-17.62,7.04-6.53-.17-12.06-2.63-16.59-7.41s-6.79-10.45-6.79-17.04,2.44-12.74,7.31-17.66,10.68-7.26,17.42-7.04c6.9,.27,12.65,3.05,17.25,8.31V17.56h6.26V57.48Zm-6.26-.5c-.11-4.96-1.86-9.2-5.24-12.73s-7.5-5.29-12.33-5.29c-4.95-.05-9.2,1.7-12.75,5.25-3.55,3.55-5.35,7.84-5.4,12.86-.05,4.96,1.59,9.3,4.95,13.02,3.35,3.72,7.45,5.66,12.29,5.83,5.17,.27,9.58-1.52,13.24-5.38,3.66-3.86,5.4-8.38,5.24-13.56Z"/>
      </g>
      <g>
        <path class="cls-3" d="M10,35.5c.77,.3,1.54,.59,2.32,.86h0c13.31,4.63,28.03,4.84,43.55,0,3.86-1.2,7.76-2.71,11.71-4.55,6.91-3.22,13.67-7.29,20.22-12.12,.08,2.41,.14,4.78,.08,7.15-.24,9.73-1.52,19.34-4.14,28.73-.3,1.08-.62,2.15-.95,3.21-1.46,4.6-3.24,9.03-5.38,13.27H19.94c-1.61-3.16-3.03-6.45-4.28-9.85-2.63-7.13-4.12-14.52-5.15-22.03-.2-1.45-.36-2.9-.49-4.35"/>
        <path class="cls-1" d="M67.59,67.38c5.16-2.41,10.24-5.29,15.21-8.61-1.46,4.6-3.24,9.03-5.38,13.27-.46,.91-.94,1.82-1.44,2.72-3.07,5.58-6.77,10.81-11.15,15.66-2.86,3.17-5.98,6.14-9.23,8.92-5.33,4.56-8.57,4.49-13.98-.05-8.53-7.14-15.34-15.49-20.49-25,10.79,2.1,22.35,1.45,34.39-2.26,1.4-.43,2.8-.9,4.21-1.41,2.6-.95,5.22-2.03,7.86-3.26Z"/>
        <path class="cls-4" d="M75.98,74.76c-3.07,5.58-6.77,10.81-11.15,15.66-2.86,3.17-5.98,6.14-9.23,8.92-5.33,4.56-8.57,4.49-13.98-.05-8.53-7.14-15.34-15.49-20.49-25-.41-.74-.8-1.5-1.18-2.26-1.61-3.16-3.03-6.45-4.28-9.85-2.63-7.13-4.12-14.52-5.15-22.03-.2-1.45-.36-2.9-.49-4.35,12.91,13.82,27.01,24.67,41.85,31.57,2.64,1.23,5.26,2.31,7.86,3.26,1.41,.51,2.81,.98,4.21,1.41,4.07,1.25,8.08,2.16,12.03,2.72Z"/>
        <path class="cls-2" d="M10,35.5c-.03-.31-.06-.61-.08-.92,.79,.62,1.59,1.21,2.4,1.78h0c13.31,9.25,28.03,9.68,43.55,0,3.86-2.39,7.76-5.42,11.71-9.09,4.31-4,8.54-8.66,12.71-13.94,1.74,.4,3.49,.79,5.24,1.18,.62,.14,1.23,.36,2.14,.63,.03,1.54,.09,3.05,.13,4.54,.08,2.41,.14,4.78,.08,7.15-.24,9.73-1.52,19.34-4.14,28.73-.3,1.08-.62,2.15-.95,3.21-1.46,4.6-3.24,9.03-5.38,13.27-.46,.91-.94,1.82-1.44,2.72-3.07,5.58-6.77,10.81-11.15,15.66-2.86,3.17-5.98,6.14-9.23,8.92-5.33,4.56-8.57,4.49-13.98-.05-8.53-7.14-15.34-15.49-20.49-25-.41-.74-.8-1.5-1.18-2.26-1.61-3.16-3.03-6.45-4.28-9.85-2.63-7.13-4.12-14.52-5.15-22.03-.2-1.45-.36-2.9-.49-4.35"/>
        <path class="cls-4" d="M48.7,116.04c-3.05,0-6.13-1.51-9.74-4.55-10.25-8.58-18.63-18.81-24.91-30.39-.49-.9-.97-1.82-1.44-2.75-1.91-3.76-3.66-7.78-5.19-11.95-2.81-7.64-4.8-16.12-6.24-26.69-.23-1.68-.42-3.41-.59-5.28-.01-.13-.03-.28-.04-.44v-.09c-.04-.32-.07-.64-.09-.96C-.14,25.29-.03,17.79,.13,12.11c.11-3.49,.73-4.28,4.15-5.31C16.54,3.14,27.9,1.02,39.07,.3c11.07-.71,21.68-.15,31.52,1.67,5.59,1.04,11.25,2.33,16.25,3.48,2.07,.47,4.15,.94,6.22,1.4,.32,.07,.62,.16,.95,.25,1.89,.56,3.2,2.26,3.25,4.23l.11,3.62c.09,2.74,.17,5.69,.1,8.64h0c-.3,12.21-1.98,23.9-5,34.75-.37,1.31-.75,2.61-1.16,3.89-1.79,5.64-3.99,11.06-6.54,16.12-.56,1.11-1.14,2.22-1.75,3.31-3.77,6.84-8.33,13.25-13.57,19.05-3.27,3.62-6.93,7.16-11.19,10.81-3.51,3-6.53,4.51-9.57,4.51ZM4.27,11.1c-.03,.31-.04,.79-.05,1.13-.16,5.58-.27,12.94,.31,20.38,.02,.31,.05,.6,.08,.9l.04,.49c.17,1.85,.35,3.52,.58,5.14,1.4,10.27,3.32,18.48,6.02,25.83,1.48,4.02,3.17,7.9,5.01,11.53,.45,.9,.9,1.77,1.38,2.63,6.04,11.14,14.09,20.97,23.94,29.22,5.73,4.8,8.48,4.81,14.03,.07,4.12-3.53,7.66-6.95,10.81-10.45,5.02-5.57,9.4-11.72,13.02-18.29,.58-1.06,1.14-2.11,1.68-3.18,2.46-4.87,4.58-10.09,6.3-15.52,.39-1.24,.76-2.5,1.12-3.76,2.93-10.52,4.56-21.87,4.85-33.74h0c.07-2.84,0-5.72-.09-8.41l-.11-3.63c0-.2-.14-.37-.33-.43-.23-.07-.45-.13-.67-.18-2.08-.46-4.16-.93-6.24-1.41-4.96-1.14-10.59-2.42-16.09-3.44-9.51-1.76-19.78-2.3-30.51-1.61-10.86,.7-21.93,2.77-33.82,6.32-.47,.14-.94,.28-1.24,.39Z"/>
      </g>
    </g>
  </g>
</svg>