<?xml version="1.0" encoding="UTF-8"?>
<svg id="Layer_2" data-name="Layer 2" xmlns="http://www.w3.org/2000/svg" xmlns:xlink="http://www.w3.org/1999/xlink" viewBox="0 0 97.5 116.04">
  <defs>
    <style>
      .cls-1 {
        fill: #1172ba;
      }

      .cls-2 {
        fill: #1a1a1a;
      }

      .cls-3 {
        fill: url(#linear-gradient);
      }

      .cls-4 {
        fill: #2baae2;
      }

      .cls-5 {
        fill: #010101;
      }
    </style>
    <linearGradient id="linear-gradient" x1="81" y1="-18.21" x2="-42.13" y2="217.71" gradientUnits="userSpaceOnUse">
      <stop offset="0" stop-color="#2baae2"/>
      <stop offset=".06" stop-color="#4fb8e6" stop-opacity=".83"/>
      <stop offset=".14" stop-color="#78c9ec" stop-opacity=".63"/>
      <stop offset=".22" stop-color="#9cd7f1" stop-opacity=".46"/>
      <stop offset=".31" stop-color="#bbe3f5" stop-opacity=".32"/>
      <stop offset=".41" stop-color="#d4edf9" stop-opacity=".2"/>
      <stop offset=".51" stop-color="#e7f5fb" stop-opacity=".11"/>
      <stop offset=".63" stop-color="#f4fafd" stop-opacity=".05"/>
      <stop offset=".77" stop-color="#fcfefe" stop-opacity=".01"/>
      <stop offset="1" stop-color="#fff" stop-opacity="0"/>
    </linearGradient>
  </defs>
  <g id="Layer_1-2" data-name="Layer 1">
    <g>
      <path class="cls-4" d="M10,35.5c.77,.3,1.54,.59,2.32,.86h0c13.31,4.63,28.03,4.84,43.55,0,3.86-1.2,7.76-2.71,11.71-4.55,6.91-3.22,13.67-7.29,20.22-12.12,.08,2.41,.14,4.78,.08,7.15-.24,9.73-1.52,19.34-4.14,28.73-.3,1.08-.62,2.15-.95,3.21-1.46,4.6-3.24,9.03-5.38,13.27H19.94c-1.61-3.16-3.03-6.45-4.28-9.85-2.63-7.13-4.12-14.52-5.15-22.03-.2-1.45-.36-2.9-.49-4.35"/>
      <path class="cls-1" d="M67.59,67.38c5.16-2.41,10.24-5.29,15.21-8.61-1.46,4.6-3.24,9.03-5.38,13.27-.46,.91-.94,1.82-1.44,2.72-3.07,5.58-6.77,10.81-11.15,15.66-2.86,3.17-5.98,6.14-9.23,8.92-5.33,4.56-8.57,4.49-13.98-.05-8.53-7.14-15.34-15.49-20.49-25,10.79,2.1,22.35,1.45,34.39-2.26,1.4-.43,2.8-.9,4.21-1.41,2.6-.95,5.22-2.03,7.86-3.26Z"/>
      <path class="cls-5" d="M75.98,74.76c-3.07,5.58-6.77,10.81-11.15,15.66-2.86,3.17-5.98,6.14-9.23,8.92-5.33,4.56-8.57,4.49-13.98-.05-8.53-7.14-15.34-15.49-20.49-25-.41-.74-.8-1.5-1.18-2.26-1.61-3.16-3.03-6.45-4.28-9.85-2.63-7.13-4.12-14.52-5.15-22.03-.2-1.45-.36-2.9-.49-4.35,12.91,13.82,27.01,24.67,41.85,31.57,2.64,1.23,5.26,2.31,7.86,3.26,1.41,.51,2.81,.98,4.21,1.41,4.07,1.25,8.08,2.16,12.03,2.72Z"/>
      <path class="cls-3" d="M10,35.5c-.03-.31-.06-.61-.08-.92,.79,.62,1.59,1.21,2.4,1.78h0c13.31,9.25,28.03,9.68,43.55,0,3.86-2.39,7.76-5.42,11.71-9.09,4.31-4,8.54-8.66,12.71-13.94,1.74,.4,3.49,.79,5.24,1.18,.62,.14,1.23,.36,2.14,.63,.03,1.54,.09,3.05,.13,4.54,.08,2.41,.14,4.78,.08,7.15-.24,9.73-1.52,19.34-4.14,28.73-.3,1.08-.62,2.15-.95,3.21-1.46,4.6-3.24,9.03-5.38,13.27-.46,.91-.94,1.82-1.44,2.72-3.07,5.58-6.77,10.81-11.15,15.66-2.86,3.17-5.98,6.14-9.23,8.92-5.33,4.56-8.57,4.49-13.98-.05-8.53-7.14-15.34-15.49-20.49-25-.41-.74-.8-1.5-1.18-2.26-1.61-3.16-3.03-6.45-4.28-9.85-2.63-7.13-4.12-14.52-5.15-22.03-.2-1.45-.36-2.9-.49-4.35"/>
      <path class="cls-2" d="M48.7,116.04c-3.05,0-6.13-1.51-9.74-4.55-10.25-8.58-18.63-18.81-24.91-30.39-.49-.9-.97-1.82-1.44-2.75-1.91-3.76-3.66-7.78-5.19-11.95-2.81-7.64-4.8-16.12-6.24-26.69-.23-1.68-.42-3.41-.59-5.28-.01-.13-.03-.28-.04-.44v-.09c-.04-.32-.07-.64-.09-.96C-.14,25.29-.03,17.79,.13,12.11c.11-3.49,.73-4.28,4.15-5.31C16.54,3.14,27.9,1.02,39.07,.3c11.07-.71,21.68-.15,31.52,1.67,5.59,1.04,11.25,2.33,16.25,3.48,2.07,.47,4.15,.94,6.22,1.4,.32,.07,.62,.16,.95,.25,1.89,.56,3.2,2.26,3.25,4.23l.11,3.62c.09,2.74,.17,5.69,.1,8.64h0c-.3,12.21-1.98,23.9-5,34.75-.37,1.31-.75,2.61-1.16,3.89-1.79,5.64-3.99,11.06-6.54,16.12-.56,1.11-1.14,2.22-1.75,3.31-3.77,6.84-8.33,13.25-13.57,19.05-3.27,3.62-6.93,7.16-11.19,10.81-3.51,3-6.53,4.51-9.57,4.51ZM4.27,11.1c-.03,.31-.04,.79-.05,1.13-.16,5.58-.27,12.94,.31,20.38,.02,.31,.05,.6,.08,.9l.04,.49c.17,1.85,.35,3.52,.58,5.14,1.4,10.27,3.32,18.48,6.02,25.83,1.48,4.02,3.17,7.9,5.01,11.53,.45,.9,.9,1.77,1.38,2.63,6.04,11.14,14.09,20.97,23.94,29.22,5.73,4.8,8.48,4.81,14.03,.07,4.12-3.53,7.66-6.95,10.81-10.45,5.02-5.57,9.4-11.72,13.02-18.29,.58-1.06,1.14-2.11,1.68-3.18,2.46-4.87,4.58-10.09,6.3-15.52,.39-1.24,.76-2.5,1.12-3.76,2.93-10.52,4.56-21.87,4.85-33.74h0c.07-2.84,0-5.72-.09-8.41l-.11-3.63c0-.2-.14-.37-.33-.43-.23-.07-.45-.13-.67-.18-2.08-.46-4.16-.93-6.24-1.41-4.96-1.14-10.59-2.42-16.09-3.44-9.51-1.76-19.78-2.3-30.51-1.61-10.86,.7-21.93,2.77-33.82,6.32-.47,.14-.94,.28-1.24,.39Z"/>
    </g>
  </g>
</svg>