<svg xmlns="http://www.w3.org/2000/svg" width="90" height="90" viewBox="0 0 90 90">
  <g id="Group_271" data-name="Group 271" transform="translate(-475 -2563)">
    <circle id="Ellipse_1" data-name="Ellipse 1" cx="45" cy="45" r="45" transform="translate(475 2563)" fill="#28abe2"/>
    <g id="cash-coin" transform="translate(498 2588)">
      <path id="Path_28" data-name="Path 28" d="M20.305,31.749A11.444,11.444,0,1,0,8.861,20.305,11.444,11.444,0,0,0,20.305,31.749ZM34.61,20.305A14.305,14.305,0,1,1,20.305,6,14.305,14.305,0,0,1,34.61,20.305Z" transform="translate(10.39 10.39)" fill="#d8f3ff" fill-rule="evenodd"/>
      <path id="Path_29" data-name="Path 29" d="M9.44,18.353c.134,1.705,1.482,3.033,3.9,3.193v1.259h1.073V21.538c2.5-.175,3.965-1.513,3.965-3.453,0-1.768-1.116-2.678-3.119-3.147l-.847-.2V11.3a2,2,0,0,1,1.92,1.522h1.883c-.134-1.645-1.545-2.93-3.8-3.07V8.5H13.339V9.787C11.2,10,9.749,11.281,9.749,13.1c0,1.608,1.081,2.632,2.881,3.05l.71.175v3.639a2.164,2.164,0,0,1-1.991-1.611H9.437Zm3.891-3.874c-1.056-.243-1.628-.744-1.628-1.493a1.736,1.736,0,0,1,1.637-1.654V14.48h-.009Zm1.236,2.134c1.285.3,1.874.778,1.874,1.628,0,.97-.735,1.634-2.028,1.757V16.58Z" transform="translate(16.993 15.219)" fill="#d8f3ff"/>
      <path id="Path_30" data-name="Path 30" d="M2.813,0A2.837,2.837,0,0,0,0,2.861V25.749A2.837,2.837,0,0,0,2.812,28.61H14.3a17.586,17.586,0,0,1,.726-2.861H8.438a5.674,5.674,0,0,0-5.625-5.722V8.583A5.674,5.674,0,0,0,8.438,2.861H36.563a5.674,5.674,0,0,0,5.625,5.722V18.677A17.143,17.143,0,0,1,45,21.978V2.861A2.837,2.837,0,0,0,42.188,0Z" fill="#d8f3ff"/>
      <path id="Path_31" data-name="Path 31" d="M17.439,8.958l.006-.237a5.722,5.722,0,1,0-8.961,4.721,17.115,17.115,0,0,1,8.955-4.483Z" transform="translate(10.778 5.396)" fill="#d8f3ff"/>
    </g>
  </g>
</svg>
