<svg xmlns="http://www.w3.org/2000/svg" width="180" height="50" viewBox="0 0 180 50">
  <g id="Group_71" data-name="Group 71" transform="translate(-309 -2196)">
    <path id="path11" d="M173.337,50H6.67A6.488,6.488,0,0,1,0,43.751V6.251A6.488,6.488,0,0,1,6.67,0H173.337A6.488,6.488,0,0,1,180,6.251v37.5A6.487,6.487,0,0,1,173.337,50" transform="translate(308.996 2195.999)" fill="#100f0d"/>
    <g id="Group_69" data-name="Group 69" transform="translate(308.704 2193.87)">
      <path id="path35" d="M142.58,40h2.488V23.331H142.58Zm22.409-10.664-2.852,7.226h-.085l-2.96-7.226h-2.68l4.44,10.1-2.532,5.618h2.595l6.841-15.718Zm-14.11,8.771c-.813,0-1.951-.408-1.951-1.416,0-1.286,1.416-1.78,2.637-1.78a4.43,4.43,0,0,1,2.273.557,3.016,3.016,0,0,1-2.96,2.638Zm.3-9.135a4.671,4.671,0,0,0-4.439,2.552l2.208.922a2.357,2.357,0,0,1,2.273-1.222,2.4,2.4,0,0,1,2.616,2.144v.171a5.507,5.507,0,0,0-2.595-.643c-2.381,0-4.8,1.308-4.8,3.752,0,2.23,1.952,3.667,4.139,3.667a3.507,3.507,0,0,0,3.173-1.63h.087v1.287h2.4V33.582c0-2.959-2.211-4.61-5.061-4.61ZM135.8,31.365h-3.539V25.652H135.8a2.857,2.857,0,1,1,0,5.713Zm-.064-8.034h-5.961V40h2.487V33.686h3.475a5.184,5.184,0,1,0,0-10.353ZM103.233,38.109a3.449,3.449,0,0,1,0-6.873,3.2,3.2,0,0,1,3.029,3.458A3.169,3.169,0,0,1,103.233,38.109Zm2.857-7.84H106A3.93,3.93,0,0,0,103.019,29a5.676,5.676,0,0,0,0,11.341A3.867,3.867,0,0,0,106,39.055h.086v.816c0,2.17-1.16,3.33-3.029,3.33a3.139,3.139,0,0,1-2.857-2.019l-2.169.9a5.4,5.4,0,0,0,5.026,3.351c2.922,0,5.392-1.719,5.392-5.908V29.345H106.09ZM110.172,40h2.491V23.331h-2.491Zm6.164-5.5a3.111,3.111,0,0,1,2.965-3.308,2.2,2.2,0,0,1,2.106,1.2Zm7.733-1.891A5.27,5.27,0,0,0,119.215,29a5.389,5.389,0,0,0-5.349,5.671,5.549,5.549,0,0,0,5.628,5.671,5.642,5.642,0,0,0,4.726-2.513l-1.933-1.289a3.239,3.239,0,0,1-2.793,1.568,2.883,2.883,0,0,1-2.748-1.719l7.581-3.136ZM63.66,30.742v2.406h5.756a5.02,5.02,0,0,1-1.31,3.029,5.9,5.9,0,0,1-4.446,1.761,6.4,6.4,0,0,1,0-12.8A6.135,6.135,0,0,1,68,26.854l1.7-1.7A8.394,8.394,0,0,0,63.66,22.73a8.808,8.808,0,1,0,0,17.614,8.052,8.052,0,0,0,6.143-2.47,7.949,7.949,0,0,0,2.084-5.628,7.851,7.851,0,0,0-.129-1.5Zm14.772,7.367a3.445,3.445,0,1,1,3.2-3.437A3.281,3.281,0,0,1,78.432,38.109Zm0-9.108a5.671,5.671,0,1,0,5.692,5.671A5.589,5.589,0,0,0,78.432,29Zm12.417,9.108a3.445,3.445,0,1,1,3.2-3.437A3.281,3.281,0,0,1,90.849,38.109Zm0-9.108a5.671,5.671,0,1,0,5.693,5.671A5.589,5.589,0,0,0,90.849,29" fill="#fff"/>
      <path id="path37" d="M27.622,25.9,13.428,40.965s0,.006,0,.009a3.837,3.837,0,0,0,5.648,2.312l.045-.027L35.1,34.04,27.623,25.9" fill="#eb3131"/>
      <path id="path39" d="M41.983,23.334l-.014-.009-6.9-4L27.3,26.241l7.8,7.8L41.96,30.08a3.837,3.837,0,0,0,.023-6.746" fill="#f6b60b"/>
      <path id="path41" d="M13.426,12.37a3.758,3.758,0,0,0-.13.987V39.98a3.706,3.706,0,0,0,.131.986L28.111,26.284,13.427,12.37" fill="#5778c5"/>
      <path id="path43" d="M27.727,26.668l7.347-7.345-15.96-9.253a3.841,3.841,0,0,0-5.687,2.3.011.011,0,0,0,0,0l14.3,14.3" fill="#3bad49"/>
      <path id="path33" d="M63.193,13.042H59.3V14h2.915a2.68,2.68,0,0,1-.919,1.85,2.989,2.989,0,0,1-2,.673,3.026,3.026,0,0,1-2.219-.908,3.181,3.181,0,0,1-.9-2.3,3.181,3.181,0,0,1,.9-2.3,3.024,3.024,0,0,1,2.219-.906,3.177,3.177,0,0,1,1.267.246,2.448,2.448,0,0,1,.952.706l.74-.74a3.329,3.329,0,0,0-1.288-.885A4.4,4.4,0,0,0,59.3,9.13a4.134,4.134,0,0,0-4.169,4.191A4.134,4.134,0,0,0,59.3,17.513a3.848,3.848,0,0,0,2.948-1.188,3.635,3.635,0,0,0,1-2.679,3.953,3.953,0,0,0-.056-.6ZM64.7,9.309v8.025h4.685v-.985H65.731V13.8h3.3V12.84h-3.3V10.3h3.654V9.309Zm11.255.988V9.309H70.44V10.3h2.242v7.037h1.031V10.3Zm4.993-.988H79.916v8.025h1.031Zm6.807.988V9.309H82.24V10.3h2.242v7.037h1.031V10.3Zm10.406.056a4.152,4.152,0,0,0-5.873-.013A4.046,4.046,0,0,0,91.1,13.321,4.047,4.047,0,0,0,92.287,16.3a4.167,4.167,0,0,0,5.873,0,4.047,4.047,0,0,0,1.187-2.981,4.034,4.034,0,0,0-1.187-2.969Zm-5.133.671a2.955,2.955,0,0,1,2.2-.906,2.914,2.914,0,0,1,2.185.906,3.12,3.12,0,0,1,.885,2.3,3.117,3.117,0,0,1-.885,2.3,2.916,2.916,0,0,1-2.185.908,2.956,2.956,0,0,1-2.2-.908,3.178,3.178,0,0,1-.873-2.3A3.181,3.181,0,0,1,93.027,11.023Zm8.771,1.313-.044-1.548h.044l4.079,6.546h1.077V9.309h-1.031V14l.044,1.548h-.044l-3.9-6.244h-1.256v8.025H101.8Z" fill="#fff" stroke="#fff" stroke-miterlimit="10" stroke-width="0.267"/>
    </g>
  </g>
</svg>
