<svg xmlns="http://www.w3.org/2000/svg" width="180" height="50.005" viewBox="0 0 180 50.005">
  <g id="Layer_1" data-name="Layer 1" transform="translate(0 0.003)">
    <g id="Group_317" data-name="Group 317">
      <g id="Group_71" data-name="Group 71">
        <path id="path11" d="M173.34,50H6.67A6.493,6.493,0,0,1,0,43.75V6.25A6.493,6.493,0,0,1,6.67,0H173.34A6.484,6.484,0,0,1,180,6.25v37.5A6.484,6.484,0,0,1,173.34,50" fill="#121210"/>
        <g id="Group_69" data-name="Group 69">
          <path id="path35" d="M142.29,37.87h2.49V21.2h-2.49V37.87ZM164.7,27.21l-2.85,7.23h-.09l-2.96-7.23h-2.68l4.44,10.1-2.53,5.62h2.6l6.84-15.72H164.7Zm-14.11,8.77c-.81,0-1.95-.41-1.95-1.42,0-1.29,1.42-1.78,2.64-1.78a4.4,4.4,0,0,1,2.27.56,3.016,3.016,0,0,1-2.96,2.64h0Zm.3-9.13a4.661,4.661,0,0,0-4.44,2.55l2.21.92a2.362,2.362,0,0,1,2.27-1.22,2.4,2.4,0,0,1,2.62,2.14v.17a5.468,5.468,0,0,0-2.6-.64c-2.38,0-4.8,1.31-4.8,3.75,0,2.23,1.95,3.67,4.14,3.67a3.488,3.488,0,0,0,3.17-1.63h.09v1.29h2.4V31.46c0-2.96-2.21-4.61-5.06-4.61h0Zm-15.38,2.39h-3.54V23.53h3.54a2.856,2.856,0,1,1,.11,5.71Zm-.06-8.03h-5.96V37.88h2.49V31.57h3.48a5.188,5.188,0,1,0,0-10.36h0Zm-32.5,14.78a3.448,3.448,0,0,1,0-6.87,3.207,3.207,0,0,1,3.04,3.36v.1a3.176,3.176,0,0,1-2.91,3.41h-.12Zm2.86-7.84h-.09a3.947,3.947,0,0,0-2.98-1.27,5.676,5.676,0,0,0,0,11.34,3.861,3.861,0,0,0,2.98-1.29h.09v.82c0,2.17-1.16,3.33-3.03,3.33a3.154,3.154,0,0,1-2.86-2.02l-2.17.9a5.4,5.4,0,0,0,5.03,3.35c2.92,0,5.39-1.72,5.39-5.91V27.22h-2.36v.92Zm4.08,9.73h2.49V21.2h-2.49V37.87Zm6.16-5.5a3.109,3.109,0,0,1,2.9-3.3h.06a2.2,2.2,0,0,1,2.11,1.2l-5.07,2.11Zm7.73-1.89a5.277,5.277,0,0,0-4.85-3.61,5.4,5.4,0,0,0-5.36,5.42v.25A5.551,5.551,0,0,0,119,38.22h.2a5.652,5.652,0,0,0,4.73-2.51L122,34.42a3.251,3.251,0,0,1-2.79,1.57,2.9,2.9,0,0,1-2.75-1.72l7.58-3.14-.26-.64ZM63.37,28.62v2.41h5.76a4.969,4.969,0,0,1-1.31,3.03,5.885,5.885,0,0,1-4.45,1.76,6.4,6.4,0,1,1,0-12.8,6.1,6.1,0,0,1,4.34,1.72l1.7-1.7a8.371,8.371,0,0,0-6.04-2.42,8.806,8.806,0,1,0-.27,17.61h.27a7.788,7.788,0,0,0,8.22-8.1,8.364,8.364,0,0,0-.13-1.5h-8.1Zm14.77,7.36a3.444,3.444,0,1,1,3.19-3.68v.24a3.271,3.271,0,0,1-3.12,3.43h-.08Zm0-9.11a5.67,5.67,0,1,0,5.69,5.67,5.579,5.579,0,0,0-5.5-5.67h-.19Zm12.42,9.11a3.444,3.444,0,1,1,3.19-3.68v.24a3.271,3.271,0,0,1-3.12,3.43h-.08Zm0-9.11a5.67,5.67,0,1,0,5.69,5.67,5.579,5.579,0,0,0-5.5-5.67h-.19" fill="#fff"/>
          <path id="path37" d="M27.33,23.77,13.14,38.84h0a3.834,3.834,0,0,0,4.7,2.72,3.762,3.762,0,0,0,.95-.4l.05-.03,15.98-9.22-7.48-8.14" fill="#ea3432"/>
          <path id="path39" d="M41.69,21.21h-.01l-6.9-4.01-7.77,6.92,7.8,7.8,6.86-3.96a3.83,3.83,0,0,0,1.56-5.2,3.892,3.892,0,0,0-1.54-1.55" fill="#f4b61a"/>
          <path id="path41" d="M13.13,10.24a3.636,3.636,0,0,0-.13.99V37.85a3.741,3.741,0,0,0,.13.99L27.81,24.16,13.14,10.24" fill="#5b78bb"/>
          <path id="path43" d="M27.44,24.54l7.35-7.34L18.82,7.94a3.842,3.842,0,0,0-5.27,1.32,4.456,4.456,0,0,0-.42.98h0l14.3,14.3" fill="#3cad49"/>
        </g>
      </g>
      <g id="Group_316" data-name="Group 316">
        <path id="Path_149" data-name="Path 149" d="M54.94,6.57h1.88l3.46,5.76h.1l-.1-1.66V6.57h1.61v8.59h-1.7L56.54,9.08h-.1l.1,1.66v4.43h-1.6Z" fill="#fff"/>
        <path id="Path_150" data-name="Path 150" d="M66.76,15.35a3.556,3.556,0,0,1-1.37-.25,2.957,2.957,0,0,1-1.05-.71,3.261,3.261,0,0,1-.67-1.13,4.449,4.449,0,0,1-.24-1.52V6.57h1.62v5.27a2.792,2.792,0,0,0,.11.79,1.737,1.737,0,0,0,.32.62,1.388,1.388,0,0,0,.54.41,1.747,1.747,0,0,0,.74.15,1.841,1.841,0,0,0,.76-.15,1.49,1.49,0,0,0,.54-.41,1.824,1.824,0,0,0,.32-.62,2.792,2.792,0,0,0,.11-.79V6.57h1.62v5.17a4.533,4.533,0,0,1-.23,1.47,3.4,3.4,0,0,1-.67,1.14,2.979,2.979,0,0,1-1.06.74A3.445,3.445,0,0,1,66.76,15.35Z" fill="#fff"/>
        <path id="Path_151" data-name="Path 151" d="M74.28,15.16V6.57H77.3a3.348,3.348,0,0,1,1.15.2,2.72,2.72,0,0,1,.93.56,2.668,2.668,0,0,1,.62.86,2.641,2.641,0,0,1,.23,1.1,2.629,2.629,0,0,1-.85,1.97,2.72,2.72,0,0,1-.93.56,3.348,3.348,0,0,1-1.15.2H75.9v3.16H74.28Zm3.05-4.69a1.237,1.237,0,0,0,.96-.36,1.188,1.188,0,0,0,.32-.83,1.317,1.317,0,0,0-.08-.44,1.021,1.021,0,0,0-.24-.38,1.258,1.258,0,0,0-.4-.26,1.4,1.4,0,0,0-.56-.1H75.9v2.36h1.43Z" fill="#fff"/>
        <path id="Path_152" data-name="Path 152" d="M82.84,7.15a1.669,1.669,0,0,1-.31-.47,1.4,1.4,0,0,1-.11-.58,1.58,1.58,0,0,1,.12-.61,1.673,1.673,0,0,1,.33-.5,1.583,1.583,0,0,1,1.72-.34,1.4,1.4,0,0,1,.49.34,1.767,1.767,0,0,1,.34.5,1.492,1.492,0,0,1-.29,1.66l3.01,8.02H86.35l-.71-2.05h-3.3l-.72,2.05H79.83l3.01-8.02Zm2.27,4.48-.77-2.15-.31-1.04h-.1l-.31,1.04-.77,2.15h2.26ZM83.98,6.58a.46.46,0,0,0,.34-.14.483.483,0,1,0-.34.14Z" fill="#fff"/>
      </g>
    </g>
  </g>
</svg>
