<svg xmlns="http://www.w3.org/2000/svg" width="90" height="90" viewBox="0 0 90 90">
  <g id="Group_272" data-name="Group 272" transform="translate(-727 -2563)">
    <circle id="Ellipse_1" data-name="Ellipse 1" cx="45" cy="45" r="45" transform="translate(727 2563)" fill="#28abe2"/>
    <path id="box2-heart-fill" d="M10.547,0A2.812,2.812,0,0,0,8.3,1.125L.281,11.813A1.406,1.406,0,0,0,0,12.656V42.188A2.812,2.812,0,0,0,2.812,45H42.188A2.812,2.812,0,0,0,45,42.188V12.656a1.406,1.406,0,0,0-.281-.844L36.7,1.125A2.813,2.813,0,0,0,34.453,0ZM23.906,11.25H40.781l1.406,1.876v.937H2.813v-.937L4.219,11.25H21.094V2.813h2.813ZM22.5,22.48c4.68-4.812,16.383,3.608,0,14.434C6.117,26.086,17.82,17.668,22.5,22.48Z" transform="translate(750 2584)" fill="#d8f3ff"/>
  </g>
</svg>
