<svg xmlns="http://www.w3.org/2000/svg" width="90" height="90" viewBox="0 0 90 90">
  <g id="Group_270" data-name="Group 270" transform="translate(-195 -2564)">
    <circle id="Ellipse_1" data-name="Ellipse 1" cx="45" cy="45" r="45" transform="translate(195 2564)" fill="#28abe2"/>
    <g id="Group_77" data-name="Group 77" transform="translate(-2832.547 1984.5)">
      <path id="Path_32" data-name="Path 32" d="M466.87,204.664l5.546-1.945v-5.2l-5.546,1.793Z" transform="translate(2616.551 414.659)" fill="#d8f3ff"/>
      <path id="Path_33" data-name="Path 33" d="M341.006,140.738l-19.547-7.46-4.611,1.618,19.509,7.339Z" transform="translate(2746.221 469.986)" fill="#d8f3ff"/>
      <path id="Path_34" data-name="Path 34" d="M252.735,151.82l-7.118,2.514,20.672,6.678,5.85-1.891Z" transform="translate(2807.79 453.959)" fill="#d8f3ff"/>
      <path id="Path_35" data-name="Path 35" d="M412.763,208.228l-4.361,1.519h0a.919.919,0,0,1-.281.046.859.859,0,0,1-.281-1.679l4.353-1.519a.866.866,0,1,1,.57,1.633Zm7.376-27.106V187.5a.866.866,0,0,1-.585.813l-7.278,2.56h0a.937.937,0,0,1-.289.046.866.866,0,0,1-.866-.866v-6.017l-6.746,2.18v28.822l21.644-7.316V179.192l-5.88,1.9Z" transform="translate(2670.568 430.965)" fill="#d8f3ff"/>
      <path id="Path_36" data-name="Path 36" d="M393.977,123.885l-20.672-7.293-3.874,1.367,19.661,7.506Z" transform="translate(2700.772 484.408)" fill="#d8f3ff"/>
      <path id="Path_37" data-name="Path 37" d="M232.326,376.54h-.258V378.3l5.227,1.762a5.319,5.319,0,0,0-4.968-3.518Z" transform="translate(2819.501 260.389)" fill="#d8f3ff"/>
      <path id="Path_38" data-name="Path 38" d="M149.9,272.98h-4.862a.866.866,0,0,1-.866-.866v-3.981l-8.1,8.987,8.1,8.987v-4.133a.873.873,0,0,1,.866-.836h4.315a7,7,0,0,1,5.933,10.635,9.965,9.965,0,0,0,1.778-1.428A10.195,10.195,0,0,0,149.9,272.98Z" transform="translate(2902.469 354.089)" fill="#d8f3ff"/>
      <path id="Path_39" data-name="Path 39" d="M232.06,194.395h.76A11.935,11.935,0,0,1,243.5,211.6l10.188,3.441V186.221l-21.628-7.02Z" transform="translate(2819.507 430.957)" fill="#d8f3ff"/>
    </g>
  </g>
</svg>
