<?xml version="1.0" encoding="UTF-8"?><svg id="Layer_2" xmlns="http://www.w3.org/2000/svg" viewBox="0 0 248.08 221.7"><g id="Layer_1-2"><path d="M248.08,63.25c-1.46,6-2.98,11.99-4.38,18.01-4.53,19.44-8.99,38.9-13.53,58.34-2.17,9.27-9.08,14.67-18.69,14.67-45.86,0-91.72-.02-137.58-.03-1.29,0-2.61-.07-3.86,.18-4,.79-6.47,4.28-6.2,8.57,.25,4.07,3.19,7.05,7.3,7.35,1.04,.08,2.1,.04,3.15,.04,47.39,0,94.79,0,142.18,0,5.79,0,9.58,3.88,8.22,8.91-.58,2.13-2.46,3.89-4.07,6.29,3.8,14.39,1.11,24.34-8.9,31.27-8.71,6.03-20.5,6.01-29.08-.07-9.84-6.97-12.67-16.99-8.82-31.57h-45.08c4.54,13.32,1.83,24.59-10.19,32.32-9.03,5.8-18.77,5.48-27.53-.71-11.13-7.87-13.41-18.84-9.02-31.78-3.32,0-6.44,.05-9.55,0-12.04-.21-20.96-7.59-23.09-19.04-2.33-12.55,6.99-24.95,19.71-26.23,.48-.05,.95-.14,1.71-.26-.85-3.25-1.64-6.41-2.49-9.55-10.01-37.15-20.02-74.29-30.03-111.44-.93-3.46-1.38-3.8-5.03-3.8-8.48,0-16.96,.03-25.43-.02-3.68-.02-6.3-1.92-7.4-5.14C-.57,6.75,.23,3.56,2.73,1.79,3.98,.91,5.65,.14,7.14,.13,16.9,.02,26.68-.14,36.43,.26c7.51,.31,13.35,5.4,15.39,12.65,2.78,9.92,5.47,19.87,8.04,29.84,.47,1.81,1.25,2.21,2.97,2.21,43.52,.14,87.03,.33,130.55,.52,12.84,.06,25.67,.16,38.51,.23,8.55,.05,12.97,3.21,15.87,11.38,.05,.14,.21,.23,.32,.34v5.81Zm-183.39-3.55c.04,.49,.02,.74,.08,.96,2.73,10.18,5.5,20.34,8.15,30.53,.38,1.48,1.25,1.41,2.31,1.41,8.07,0,16.13,0,24.2-.01,.6,0,1.2-.15,1.9-.24-.04-.82-.02-1.46-.1-2.09-1.27-9.58-2.6-19.15-3.79-28.74-.22-1.8-1.24-1.73-2.5-1.73-8.63-.02-17.26-.06-25.89-.08-1.44,0-2.87,0-4.36,0Zm47.22,.24c1.47,10.98,2.91,21.74,4.35,32.52h27.5V59.94h-31.85Zm78.55,.24h-31.79v32.18c.44,.09,.74,.21,1.05,.21,8.31,.02,16.61-.01,24.92,.05,1.68,.01,1.74-1.05,1.89-2.19,.44-3.35,.87-6.71,1.3-10.06,.86-6.61,1.72-13.23,2.63-20.2Zm35.63,32.28c2.47-10.72,4.91-21.33,7.42-32.2-9.21,0-18.07-.03-26.94,.08-.55,0-1.46,1.1-1.56,1.78-1.05,7.17-1.98,14.36-2.91,21.54-.38,2.9-.69,5.82-1.05,8.79h25.04Zm-148.65,14.81c.16,.81,.24,1.36,.38,1.89,1.99,7.45,3.97,14.91,6,22.35,2.22,8.12,1.15,8.26,10.63,8.16,4.33-.05,8.66,0,13.11,0,0-.78,.05-1.26,0-1.73-1.28-9.73-2.61-19.46-3.85-29.19-.2-1.55-1.12-1.48-2.21-1.48-5.32,.01-10.64,0-15.96,0-2.64,0-5.29,0-8.1,0Zm106.77,.15h-25.52v32.22c6.84,0,13.52,.04,20.2-.08,.47,0,1.21-1.12,1.32-1.79,.71-4.62,1.31-9.26,1.91-13.89,.7-5.42,1.38-10.85,2.09-16.45Zm-65.99-.02c1.45,10.81,2.87,21.46,4.3,32.08h21.28v-32.08h-25.57Zm76.53,32.22c6.03,0,11.74,.04,17.46-.02,2.31-.02,3.39-1.52,3.86-3.63,1.13-5.02,2.29-10.03,3.44-15.05,1.02-4.45,2.04-8.9,3.09-13.53h-23.59c-1.41,10.68-2.81,21.28-4.26,32.23Zm-89.55,67.1c6.07,.03,11.02-4.83,11.01-10.81,0-5.89-4.86-10.75-10.79-10.83-6.04-.08-10.95,4.79-10.95,10.85,0,5.95,4.78,10.76,10.73,10.79Zm91.66,0c6.21,.11,11.04-4.48,11.13-10.57,.09-6.13-4.59-10.98-10.68-11.06-5.95-.08-10.8,4.65-10.89,10.61-.08,6.08,4.5,10.92,10.43,11.03Z"/></g></svg>