<svg xmlns="http://www.w3.org/2000/svg" width="90" height="90" viewBox="0 0 90 90">
  <g id="Group_273" data-name="Group 273" transform="translate(-986 -2563)">
    <circle id="Ellipse_1" data-name="Ellipse 1" cx="45" cy="45" r="45" transform="translate(986 2563)" fill="#28abe2"/>
    <g id="Group_78" data-name="Group 78" transform="translate(-1971.469 1188)">
      <path id="Path_40" data-name="Path 40" d="M206.742,151.738a15.276,15.276,0,0,1-15.257-15.257,15.878,15.878,0,0,1,1.072-5.691,15.269,15.269,0,1,1,14.185,20.948Zm21.278-20.866v-.412a21.286,21.286,0,0,0-42.556,0v.412a7.034,7.034,0,0,0-3.464,6.02v1.4a6.969,6.969,0,0,0,6.928,6.928.65.65,0,0,0,.66-.66V130.625a.65.65,0,0,0-.66-.66,6.275,6.275,0,0,0-1.732.247,19.562,19.562,0,0,1,39.092-.082,6.274,6.274,0,0,0-1.732-.247.65.65,0,0,0-.66.66V144.48a.65.65,0,0,0,.66.66,5.859,5.859,0,0,0,1.732-.247v7.753l-12.453,5.608a.82.82,0,0,0-.412,1.155.793.793,0,0,0,.742.495.5.5,0,0,0,.33-.082l12.948-5.773a.793.793,0,0,0,.495-.742v-8.991a7.034,7.034,0,0,0,3.464-6.02v-1.4a6.789,6.789,0,0,0-3.382-6.02Z" transform="translate(2795.469 1285.241)" fill="#d8f3ff"/>
    </g>
  </g>
</svg>
